<svg width="2475" height="2476" xmlns="http://www.w3.org/2000/svg" xmlns:xlink="http://www.w3.org/1999/xlink" xml:space="preserve" overflow="hidden"><defs><clipPath id="clip0"><rect x="963" y="0" width="2475" height="2476"/></clipPath></defs><g clip-path="url(#clip0)" transform="translate(-963 0)"><rect x="963" y="0" width="2475" height="2476" fill="#FFFFFF" fill-opacity="0"/><path d="M1356 1237.5C1356 771.095 1733.87 393 2200 393 2666.13 393 3044 771.095 3044 1237.5 3044 1703.9 2666.13 2082 2200 2082 1733.87 2082 1356 1703.9 1356 1237.5Z" fill="#FF0B0B" fill-rule="evenodd" fill-opacity="0.8"/><path d="M1615 1237.5C1615 914.69 1876.91 653 2200 653 2523.09 653 2785 914.69 2785 1237.5 2785 1560.31 2523.09 1822 2200 1822 1876.91 1822 1615 1560.31 1615 1237.5Z" fill="#FF6464" fill-rule="evenodd"/></g></svg>